<svg width="435" height="286" viewBox="0 0 435 286" fill="none" xmlns="http://www.w3.org/2000/svg">
<path fill-rule="evenodd" clip-rule="evenodd" d="M159.981 276.58H435C393.851 92.1932 356.557 0 323.119 0C272.962 0 254.6 57.4063 227.087 79.5767C199.574 101.747 183.578 111.536 138.593 95.5564C93.609 79.5767 0 86.3527 0 139.903C0 175.604 13.1553 221.105 39.4658 276.405L159.981 276.58Z" fill="#4D8FE9"/>
<path fill-rule="evenodd" clip-rule="evenodd" d="M19.1923 256.358C19.1923 256.358 33.9181 185.724 51.0696 175.463C59.6702 170.317 81.5161 164.545 81.5161 164.545C81.5161 164.545 92.9308 186.626 104.918 180.435C113.458 176.024 113.03 165.751 113.03 165.751C113.03 165.751 150.408 165.721 156.87 169.247C158.277 170.016 168.978 191.49 177.704 213.395C178.989 216.622 186.885 229.663 179.61 231.73C174.277 234.063 152.484 236.598 152.484 236.598C152.484 236.598 154.258 251.256 152.985 252.01C149.007 254.363 130.862 253.407 122.989 254.048C121.817 254.143 124.063 244.204 124.989 239.244C127.27 238.357 129.474 235.329 129.163 235.505C127.599 236.385 124.364 223.527 122.783 224.401C121.553 225.082 87.4425 225.653 86.2093 226.323C79.3854 241.407 92.6591 284.104 86.9507 282.507C67.9159 277.183 53.185 274.768 53.185 274.768C53.185 274.768 51.3901 259.537 48.1084 259.038C41.1841 257.985 19.1923 256.358 19.1923 256.358Z" fill="#2D9CDB"/>
<path fill-rule="evenodd" clip-rule="evenodd" d="M92.5049 225.187C94.9712 225.671 97.5481 225.388 99.5418 224.446C99.2447 224.078 99.0337 223.562 98.6879 223.441C97.7316 223.108 93.733 224.242 92.5049 225.187ZM88.9576 228.042C95.2886 230.513 116.07 229.484 120.129 226.514C109.657 226.024 99.5621 226.461 88.9576 228.042ZM90.2201 274.605C90.4574 276.545 90.6927 278.214 90.859 279.889C90.9716 281.037 91.6358 281.575 92.6824 281.813C95.5138 282.453 98.3178 283.269 101.181 283.708C104.07 284.15 107.018 284.27 109.928 283.456C109.349 283.16 108.759 282.977 108.159 282.927C106.871 282.823 105.572 282.839 104.286 282.711C100.254 282.311 98.7346 282.927 99.6341 277.147C97.4913 276.998 95.8799 275.942 94.8941 273.952C93.3558 274.167 91.937 274.364 90.2201 274.605ZM152.485 236.598C153.825 236.598 154.815 236.743 155.746 236.574C162.657 235.321 169.572 234.09 176.445 232.662C178.796 232.173 181.038 231.156 183.318 230.347C184.032 230.093 184.665 229.652 184.542 228.764C184.303 227.034 184 225.313 183.701 223.441C172.786 225.82 162.18 228.132 151.325 230.498C151.692 232.433 152.078 234.464 152.485 236.598ZM47.9857 256.978C47.719 254.038 47.4756 251.352 47.216 248.488C37.9238 248.881 28.9114 249.054 19.8494 245.815C20.0685 248.82 20.2865 251.383 20.4325 253.948C20.5126 255.383 21.3057 256.218 22.5834 256.533C24.3825 256.975 26.2048 257.391 28.0434 257.593C33.622 258.206 39.1945 257.611 44.7649 257.328C45.7233 257.279 46.6775 257.124 47.9857 256.978ZM121.575 249.116C122.624 245.01 123.039 241.018 122.626 239.245C110.718 242.036 98.7204 244.097 86.2094 243.297C86.6485 245.853 87.0267 248.053 87.4202 250.353C98.9556 251.285 110.256 251.678 121.575 249.116ZM87.621 252.21C87.8208 254.092 87.9739 255.678 88.1585 257.259C88.6828 261.76 89.2141 266.259 89.7567 270.757C89.9595 272.441 90.2475 272.653 91.9532 272.449C92.6773 272.363 93.4196 272.32 94.1092 272.11C94.6477 271.946 95.1183 271.558 95.6476 271.253C92.8061 267.322 94.2563 266.567 96.9933 264.65C96.0239 262.558 97.5278 259.979 99.5418 259.801C101.727 259.608 113.188 259.488 120.737 257.888C120.965 255.548 121.173 253.437 121.409 251.016C110.113 253.421 99.1128 252.895 87.621 252.21ZM85.9386 230.139C85.0715 233.75 84.2481 237.179 83.4287 240.594C92.1997 243.026 120.107 239.628 126.406 235.38C125.108 232.942 123.801 230.487 122.55 228.136C110.412 232.616 98.2924 231.173 85.9386 230.139ZM121.428 270.027C120.782 270.286 120.261 270.616 119.704 270.695C117.78 270.972 115.845 271.165 113.911 271.383C108.913 271.946 103.913 272.461 98.8836 271.732C98.1443 271.625 97.3473 271.496 97.0268 272.393C96.678 273.367 97.0146 274.26 97.977 274.589C99.2558 275.028 100.604 275.421 101.944 275.508C107.3 275.857 112.639 275.721 117.896 274.462C118.366 274.349 118.857 274.17 119.315 274.224C119.639 274.263 120.121 274.611 120.166 274.88C120.21 275.157 119.876 275.679 119.59 275.79C118.842 276.081 118.035 276.236 117.243 276.395C113.173 277.212 109.067 277.608 104.915 277.414C103.841 277.365 100.922 277.107 101.096 279.566C101.138 280.155 102.107 280.367 102.639 280.405C107.395 280.75 112.154 281.11 116.918 281.249C119.004 281.31 121.104 280.863 123.199 280.651C125.851 280.384 127.022 278.103 127.221 275.922C127.401 273.945 127.096 272.035 126.286 270.234C125.214 267.856 124.876 265.33 125.457 262.867C126.369 259.007 125.238 258.636 121.687 259.54C115.194 261.195 108.601 261.763 101.915 261.318C101.273 261.276 100.615 261.273 99.9789 261.361C98.3157 261.59 98.0298 262.043 98.2245 264.33C101.799 264.489 105.424 264.758 109.05 264.778C111.881 264.795 114.714 264.48 117.548 264.363C118.288 264.333 119.034 264.491 119.916 264.576C119.44 266.344 118.226 266.133 117.274 266.148C112.092 266.228 106.91 266.227 101.729 266.276C100.111 266.29 98.4749 266.237 96.8818 266.46C95.4012 266.669 95.1122 267.867 96.2125 268.884C96.609 269.251 97.1627 269.55 97.689 269.653C99.0337 269.917 100.399 270.144 101.765 270.228C107.464 270.578 113.076 269.571 118.72 269.055C119.653 268.97 120.637 268.608 121.428 270.027ZM153.038 239.068C153.51 244.409 155.14 249.829 155.441 255.34C153.543 255.945 153.924 253.965 153.139 253.749C151.813 253.895 150.692 254.08 149.566 254.13C145.678 254.304 141.789 254.438 137.901 254.576C133.526 254.731 129.153 254.865 124.778 255.028C122.941 255.097 122.825 255.266 123.102 257.185C123.502 257.185 123.909 257.156 124.309 257.191C126.732 257.405 127.988 258.698 127.495 261.051C126.762 264.531 127.264 267.74 128.483 271.021C129.106 272.699 129.077 274.618 129.376 276.667C133.684 276.257 137.951 275.936 142.197 275.43C151.044 274.376 159.885 273.269 168.715 272.087C171.839 271.668 174.947 271.059 178.022 270.362C180.689 269.757 182.481 268.097 182.928 265.284C183.144 263.93 183.308 262.56 183.361 261.191C183.688 252.717 182.361 244.407 180.756 236.133C180.597 235.31 180.144 234.546 179.95 234.063C170.805 235.763 161.992 237.404 153.038 239.068ZM111.391 163.252C112.758 163.494 113.914 163.821 115.086 163.887C120.507 164.196 125.932 164.5 131.359 164.675C137.687 164.88 143.984 165.239 150.188 166.634C156.191 167.984 160.82 171.227 164.169 176.364C167.504 181.481 169.968 187.042 172.279 192.654C175.946 201.562 179.41 210.555 182.955 219.511C183.305 220.396 183.406 221.422 184.536 221.795C184.802 221.882 185.124 222.221 185.168 222.485C185.572 224.938 186.03 227.392 186.209 229.865C186.249 230.428 185.368 231.2 184.745 231.633C183.897 232.222 182.889 232.581 181.877 233.072C183.309 238.922 184.308 244.812 184.748 250.764C185.057 254.953 185.196 259.189 184.965 263.377C184.651 269.027 182.362 271.528 176.745 272.567C171.573 273.522 166.344 274.189 161.127 274.898C155.348 275.683 149.559 276.41 143.765 277.086C139.419 277.592 135.063 278.024 130.702 278.388C129.472 278.489 128.545 278.723 127.954 279.931C127.305 281.259 126.04 281.953 124.667 282.219C122.526 282.631 120.353 282.891 118.185 283.136C117.148 283.254 116.279 283.54 115.3 284.012C113.452 284.903 111.329 285.38 109.271 285.641C103.019 286.438 97.0309 284.978 91.1095 283.172C89.8824 282.797 89.3064 281.944 89.1594 280.676C88.7872 277.46 88.342 274.252 87.9465 271.039C86.9284 262.762 85.9325 254.483 84.9001 246.208C84.7714 245.175 84.4773 244.161 84.2491 243.086C83.2147 242.763 82.229 242.456 81.1287 242.114C81.796 239.359 82.4409 236.699 83.0849 234.039C83.4084 232.702 83.6995 231.358 84.0615 230.03C84.6101 228.017 85.6191 226.511 87.9952 226.402C88.8582 226.363 89.708 226.042 90.6643 225.829V223.058C93.517 222.417 96.2946 221.636 99.1726 221.405C99.6827 221.363 100.389 222.092 100.774 222.631C101.182 223.196 101.312 223.96 101.518 224.515C104.452 224.515 107.276 224.448 110.097 224.532C114.057 224.648 118.016 224.836 121.97 225.102C122.573 225.143 123.401 225.627 123.678 226.144C125.36 229.278 126.912 232.481 128.501 235.648C128.017 237.327 126.574 237.747 125.109 238.327C124.47 243.158 123.831 248.006 123.143 253.208C133.291 252.977 143.047 252.634 152.985 252.01C152.909 251.018 152.916 250.391 152.807 249.783C151.554 242.855 150.286 235.928 149.015 229.003C148.717 227.378 148.707 227.38 150.11 226.554C150.454 227.058 150.802 227.569 151.22 228.182C161.436 226.982 171.338 224.246 181.463 221.844C181.356 221.174 181.356 220.611 181.174 220.116C176.442 207.274 171.479 194.528 165.396 182.249C163.879 179.187 162.041 176.347 159.695 173.83C156.984 170.918 153.544 169.423 149.795 168.48C144.495 167.148 139.07 166.85 133.643 166.586C127.166 166.273 120.687 165.988 114.208 165.698C113.819 165.682 113.427 165.732 113.03 165.751C112.26 168.058 111.567 170.288 110.763 172.478C110.29 173.766 109.736 175.044 109.055 176.232C106.051 181.475 100.762 182.897 95.5655 179.803C91.5537 177.414 88.1706 174.272 85.3413 170.566C84.2623 169.153 83.3628 167.606 82.3791 166.121C82.0738 165.661 81.7585 165.208 81.3731 164.642C77.8156 165.642 74.2987 166.56 70.8274 167.624C64.4781 169.569 58.0619 171.387 52.2186 174.634C49.2524 176.283 46.4666 178.258 43.5957 180.079C39.0718 182.952 36.1785 187.095 34.6837 192.134C33.2833 196.86 32.0917 201.659 31.0401 206.476C28.8476 216.518 26.797 226.593 24.711 236.658C24.1573 239.338 23.6858 242.035 23.13 244.966C31.0015 247.438 38.8852 246.945 46.9808 246.73C46.9808 245.181 46.9818 243.912 46.9808 242.644C46.9777 241.268 46.9453 239.891 46.9808 238.515C46.999 237.797 47.0234 236.866 47.9837 236.863C49.0475 236.859 48.8031 237.811 48.8386 238.512C49.0871 243.445 49.3872 248.375 49.5911 253.309C49.8355 259.253 51.5047 264.957 52.462 270.78C52.681 272.12 52.9447 273.455 53.1851 274.769C52.1213 275.465 51.5442 275.14 51.3181 274.12C51.0007 272.699 50.7938 271.252 50.4531 269.836C50.0018 267.967 49.4024 266.13 48.9856 264.254C48.6206 262.61 48.4188 260.928 48.1084 259.038C39.5798 259.299 31.1141 260.613 22.4263 258.591C22.5064 260.137 22.4851 261.415 22.6524 262.667C23.2396 267.076 23.9129 271.476 24.4879 275.886C24.5437 276.319 24.1421 276.81 23.9535 277.275C23.5306 276.981 22.8167 276.752 22.7356 276.381C22.335 274.568 22.0774 272.722 21.8158 270.881C21.3067 267.279 20.7134 263.682 20.396 260.063C20.2723 258.668 20.3524 257.357 19.1923 256.359C19.1335 256.309 19.0899 256.225 19.0726 256.149C18.0615 251.88 18.0707 247.577 18.3293 242.912C19.4854 243.397 20.2439 243.715 21.3026 244.158C21.62 242.677 21.905 241.367 22.1788 240.056C25.0812 226.192 27.9491 212.322 30.9011 198.469C31.7276 194.587 32.9263 190.806 34.7223 187.228C36.2029 184.275 38.2351 181.833 40.8333 179.785C47.7271 174.356 55.3735 170.378 63.7561 167.83C69.4888 166.086 75.2499 164.441 81.008 162.786C82.7655 162.28 82.7452 162.345 83.4591 163.975C83.8789 164.935 84.3708 165.876 84.9336 166.761C87.6636 171.06 91.1775 174.611 95.3738 177.485C96.1709 178.031 97.0238 178.529 97.9121 178.902C101.649 180.473 105.088 179.394 107.115 175.921C108.922 172.825 110.113 169.468 110.844 165.955C111.021 165.101 111.19 164.247 111.391 163.252Z" fill="#F2C94C"/>
<path fill-rule="evenodd" clip-rule="evenodd" d="M116.059 115.651C115.819 117.291 115.336 118.619 114.699 119.688C114.689 119.092 114.665 118.493 114.632 117.895C115.648 115.894 116.166 113.648 115.781 112.039C116.131 113.14 116.249 114.363 116.059 115.651Z" fill="#F2C94C"/>
<path fill-rule="evenodd" clip-rule="evenodd" d="M107.297 123.342C105.279 123.133 102.14 121.917 101.497 120.179C101.262 119.549 101.377 118.887 101.823 118.21C101.509 119.19 101.768 120.653 103.025 121.547C105.281 123.149 109.337 123.332 111.686 121.599C112.078 121.311 112.453 120.957 112.813 120.566C112.81 120.998 112.797 121.429 112.784 121.862C111.112 123.136 109.088 123.53 107.297 123.342Z" fill="#F2C94C"/>
<path fill-rule="evenodd" clip-rule="evenodd" d="M104.465 108.21C105.579 107.344 106.956 106.963 108.571 107.055C106.332 107.144 103.886 108.31 102.258 111.656C102.617 110.43 103.299 109.117 104.465 108.21Z" fill="#F2C94C"/>
<path fill-rule="evenodd" clip-rule="evenodd" d="M115.748 111.914C115.736 111.863 115.719 111.813 115.703 111.762C115.722 111.811 115.732 111.865 115.748 111.914Z" fill="#F2C94C"/>
<path fill-rule="evenodd" clip-rule="evenodd" d="M111.565 107.408C108.556 106.403 106.113 106.607 104.309 108.011C102.967 109.054 102.231 110.579 101.898 111.947C101.819 111.956 101.74 111.966 101.661 111.975C99.1847 111.052 96.6322 111.408 94.5309 112.579C93.5878 113.106 93.0645 113.773 92.1275 114.314C91.4359 114.74 90.7433 115.166 90.0516 115.593C87.9646 117.347 86.2173 119.339 86.2041 122.089C86.2001 122.89 86.4729 124.882 86.8826 126.795C86.5307 126.739 86.3218 126.719 86.1372 126.659C83.1912 125.684 80.947 127.341 81.0606 130.44C81.1448 132.746 82.2522 134.525 84.2976 135.486C85.4922 136.048 85.7681 136.703 85.6636 137.913C85.0044 145.58 83.7571 153.154 82.1893 160.682C82.0078 161.549 82.1639 162.485 82.1639 163.453C83.7591 163.399 83.6983 162.41 83.8788 161.574C85.5683 153.739 86.8613 145.843 87.5721 137.855C87.7942 135.357 87.7679 135.282 85.3644 134.039C83.5157 133.082 82.4438 131.028 83.102 129.457C83.3271 128.922 83.8768 128.261 84.3676 128.175C84.8047 128.099 85.4131 128.688 85.8553 129.084C86.1392 129.34 86.1818 129.865 86.4688 130.113C86.9069 130.491 87.4626 130.732 87.9687 131.031C88.0214 130.925 88.0812 130.822 88.1431 130.718C88.1806 130.778 88.2191 130.844 88.2577 130.892C88.3165 130.648 88.3844 130.412 88.4473 130.171C88.5376 129.994 88.6157 129.815 88.6451 129.628C88.6633 129.51 88.6785 129.39 88.6968 129.271C90.7574 122.366 95.0197 117.322 101.9 114.282C101.962 114.33 102.176 114.558 102.439 114.684C102.782 114.848 103.181 114.892 103.524 115.055C104.509 115.526 105.191 116.475 104.619 117.311C103.857 118.421 102.906 118.475 102.455 117.446C102.432 117.394 102.303 117.481 102.224 117.502L102.133 117.415C101.211 118.387 100.918 119.345 101.258 120.267C101.969 122.184 105.267 123.386 107.272 123.594C107.559 123.623 107.852 123.639 108.149 123.639C109.702 123.639 111.352 123.209 112.773 122.187C112.742 122.957 112.7 123.726 112.63 124.491C112.02 131.109 111.151 137.686 108.163 143.761C106.785 146.558 105.343 147.181 102.277 146.237C100.022 145.542 97.8714 144.623 96.0501 143.056C95.5278 142.608 94.8737 141.854 94.2176 142.721C93.6193 143.511 94.3849 144.085 94.9528 144.503C95.9253 145.22 96.9212 145.937 97.9951 146.48C100.685 147.842 103.487 148.83 106.555 148.264C106.835 149.082 107.07 149.683 107.249 150.3C108.321 154.032 109.358 157.773 110.459 161.496C110.733 162.42 110.67 163.638 112.592 164.119C112.446 163.011 112.431 162.23 112.23 161.5C111.117 157.446 109.933 153.41 108.831 149.352C108.59 148.467 108.074 147.604 108.721 146.581C111.27 142.543 112.486 138.021 113.354 133.381C114.173 129.01 114.729 124.613 114.699 120.179C115.463 119.028 116.037 117.552 116.31 115.689C116.87 111.868 114.963 108.539 111.565 107.408Z" fill="#F2C94C"/>
<path fill-rule="evenodd" clip-rule="evenodd" d="M105.014 124.462L106.564 130.587L104.303 130.813L105.014 124.462Z" fill="#F2C94C"/>
<path fill-rule="evenodd" clip-rule="evenodd" d="M105.018 124.521L104.316 130.8L106.55 130.577L105.018 124.521ZM104.303 130.823C104.301 130.823 104.298 130.822 104.296 130.82C104.294 130.817 104.293 130.814 104.293 130.811L105.003 124.46C105.004 124.455 105.008 124.451 105.013 124.451C105.018 124.451 105.023 124.454 105.024 124.458L106.574 130.583C106.575 130.586 106.574 130.59 106.573 130.592C106.571 130.595 106.568 130.596 106.565 130.597L104.305 130.823H104.303Z" fill="#F2C94C"/>
<path fill-rule="evenodd" clip-rule="evenodd" d="M103.229 119.965C103.229 119.965 103.322 121.84 102.906 122.233C101.162 122.041 97.2353 122.688 95.2659 123.557C96.0407 121.76 103.229 119.965 103.229 119.965Z" fill="#F2C94C"/>
<path fill-rule="evenodd" clip-rule="evenodd" d="M103.217 119.977C103.052 120.019 101.329 120.46 99.54 121.095C97.0929 121.967 95.6245 122.809 95.2858 123.534C97.2065 122.697 101.105 122.024 102.901 122.222C103.287 121.846 103.224 120.144 103.217 119.977ZM95.2645 123.566C95.2614 123.566 95.2594 123.564 95.2574 123.562C95.2533 123.559 95.2533 123.555 95.2543 123.55C95.5768 122.803 97.0169 121.971 99.5329 121.076C101.406 120.41 103.207 119.957 103.224 119.953C103.228 119.952 103.231 119.953 103.233 119.955C103.236 119.956 103.238 119.959 103.238 119.962C103.241 120.039 103.328 121.848 102.912 122.24C102.91 122.242 102.906 122.244 102.903 122.243C101.104 122.044 97.1801 122.723 95.2696 123.565C95.2675 123.565 95.2665 123.566 95.2645 123.566Z" fill="#F2C94C"/>
<path fill-rule="evenodd" clip-rule="evenodd" d="M100.223 128.358C99.6609 128.393 99.1011 128.288 98.5789 128.116C98.7716 128.173 98.9774 128.204 99.1914 128.204C100.259 128.204 101.128 127.442 101.128 126.507C101.128 126.13 100.835 125.679 100.558 125.367C101.927 125.493 103.129 126.205 103.572 126.498C103.176 126.968 101.941 128.253 100.223 128.358ZM97.3062 126.041C97.2747 126.202 97.2555 126.378 97.2555 126.507C97.2555 127.186 97.7128 127.773 98.371 128.043C97.364 127.67 96.5304 127.07 96.1744 126.791C96.3813 126.615 96.7677 126.319 97.3062 126.041ZM104.013 126.28C103.941 126.226 102.224 124.944 100.207 124.917C97.4339 124.886 95.7617 126.578 95.6907 126.65C95.6501 126.692 95.6288 126.749 95.6309 126.808C95.6329 126.866 95.6593 126.922 95.7029 126.96C95.7911 127.038 97.8061 128.795 100.002 128.795C100.084 128.795 100.167 128.792 100.249 128.787C102.552 128.644 103.998 126.661 104.059 126.577C104.127 126.482 104.107 126.351 104.013 126.28Z" fill="#F2C94C"/>
<path fill-rule="evenodd" clip-rule="evenodd" d="M109.675 127.926C109.183 127.96 108.689 127.84 108.236 127.651C108.315 127.666 108.394 127.677 108.473 127.677C109.334 127.677 110.032 126.977 110.032 126.118C110.032 125.742 109.901 125.39 109.663 125.111C109.759 125.105 109.856 125.102 109.953 125.102H109.954C111.039 125.102 112.033 125.867 112.381 126.168C112.072 126.596 111.069 127.825 109.675 127.926ZM106.427 126.466C106.54 126.369 106.709 126.235 106.927 126.087C106.97 126.448 107.125 126.81 107.37 127.105C107.436 127.186 107.507 127.256 107.581 127.32C107.059 127.012 106.643 126.661 106.427 126.466ZM112.816 125.981C112.761 125.928 111.477 124.672 109.954 124.672H109.953C107.598 124.672 106.024 126.245 105.958 126.312C105.876 126.395 105.876 126.529 105.957 126.613C105.976 126.632 106.422 127.087 107.103 127.53C107.949 128.082 108.755 128.361 109.498 128.361C109.568 128.361 109.637 128.359 109.706 128.354C111.61 128.218 112.798 126.327 112.848 126.247C112.9 126.162 112.887 126.051 112.816 125.981Z" fill="#F2C94C"/>
<path fill-rule="evenodd" clip-rule="evenodd" d="M106.217 119.964C106.217 119.964 106.123 121.839 106.54 122.232C108.283 122.04 111.091 122.502 113.06 123.369C112.286 121.574 106.217 119.964 106.217 119.964Z" fill="#F2C94C"/>
<path fill-rule="evenodd" clip-rule="evenodd" d="M107.41 122.178C109.148 122.178 111.406 122.634 113.039 123.348C112.705 122.623 111.429 121.813 109.344 121.003C107.828 120.414 106.379 120.018 106.227 119.977C106.221 120.146 106.158 121.846 106.544 122.222C106.812 122.192 107.103 122.178 107.41 122.178ZM113.06 123.381C113.059 123.381 113.057 123.381 113.056 123.38C111.134 122.534 108.334 122.044 106.541 122.243C106.538 122.244 106.535 122.242 106.533 122.241C106.358 122.075 106.25 121.642 106.212 120.951C106.183 120.438 106.206 119.967 106.206 119.962C106.206 119.96 106.208 119.957 106.211 119.955C106.214 119.953 106.217 119.952 106.221 119.953C106.235 119.957 107.756 120.362 109.352 120.982C110.827 121.556 112.668 122.434 113.07 123.366C113.072 123.37 113.071 123.375 113.068 123.378C113.066 123.38 113.063 123.381 113.06 123.381Z" fill="#F2C94C"/>
<path fill-rule="evenodd" clip-rule="evenodd" d="M101.312 133.089C102.384 134.102 103.255 134.665 104.707 134.762C106.16 134.859 107.177 134.328 107.177 134.328C107.177 134.328 106.015 136.299 104.61 136.664C101.706 137.423 101.843 135.147 101.312 133.089Z" fill="#F2C94C"/>
<path fill-rule="evenodd" clip-rule="evenodd" d="M101.331 133.122C101.415 133.447 101.481 133.777 101.544 134.096C101.755 135.142 101.954 136.131 102.651 136.564C103.107 136.85 103.747 136.879 104.607 136.655C105.895 136.318 106.992 134.607 107.148 134.354C106.961 134.443 106 134.858 104.706 134.773C103.246 134.675 102.388 134.117 101.331 133.122ZM103.594 136.825C103.214 136.825 102.897 136.744 102.64 136.583C101.935 136.143 101.735 135.151 101.523 134.1C101.457 133.77 101.388 133.427 101.302 133.092C101.3 133.087 101.303 133.083 101.307 133.08C101.31 133.078 101.316 133.078 101.319 133.082C102.386 134.089 103.241 134.653 104.708 134.751C106.141 134.847 107.162 134.324 107.172 134.319C107.177 134.316 107.182 134.317 107.184 134.321C107.188 134.324 107.188 134.329 107.186 134.333C107.175 134.354 106.005 136.311 104.613 136.676C104.232 136.774 103.893 136.825 103.594 136.825Z" fill="#F2C94C"/>
<path fill-rule="evenodd" clip-rule="evenodd" d="M114.203 130.803C113.66 131.28 113.02 131.451 112.243 131.325C109.161 130.825 107.361 127.792 106.666 125.007C111.116 124.804 114.947 124.629 116.001 124.582C115.989 125.637 115.834 129.365 114.203 130.803ZM104.041 126.343C104.161 125.956 104.271 125.552 104.372 125.131C104.824 125.139 105.621 125.12 106.114 125.06C106.204 125.424 106.31 125.792 106.435 126.158L104.041 126.343ZM99.0171 131.537C95.9861 131.828 93.365 129.315 92.8276 125.654C95.6753 125.516 99.8039 125.324 103.806 125.139C103.289 127.218 101.916 131.257 99.0171 131.537ZM116.548 124.286L116.54 124.005L116.263 124.018C116.176 124.022 111.774 124.221 106.541 124.461L106.531 124.415L106.285 124.472C105.588 124.504 104.878 124.536 104.161 124.57L103.943 124.555L103.936 124.58C99.7435 124.773 95.3918 124.976 92.5031 125.117L92.2116 125.132L92.2458 125.424C92.4678 127.369 93.2694 129.121 94.5014 130.358C95.6388 131.499 97.0575 132.111 98.5446 132.111C98.7188 132.111 98.8941 132.103 99.0683 132.086C101.085 131.892 102.778 130.037 103.856 126.911L106.632 126.696C107.592 129.143 109.394 131.421 112.156 131.87C113.089 132.021 113.899 131.802 114.563 131.217C115.452 130.436 116.054 129.025 116.357 127.026C116.578 125.562 116.549 124.338 116.548 124.286Z" fill="#FF4D4D"/>
<path fill-rule="evenodd" clip-rule="evenodd" d="M311.824 250.351C311.803 250.516 311.782 250.681 311.761 250.848C310.419 250.848 309.07 250.925 307.736 250.823C306.669 250.742 306.764 250.071 307.197 249.198C308.803 249.599 310.314 249.975 311.824 250.351ZM278.893 246.265C280.452 244.251 281.667 242.683 282.88 241.115C283.059 241.218 283.238 241.321 283.416 241.425C282.784 243.024 282.152 244.622 281.504 246.265H278.893ZM273.518 245.659C275.858 243.239 278.449 241.486 281.115 239.774C280.205 241.753 278.788 243.347 277.463 245.015C276.441 246.305 275.279 246.435 273.518 245.659ZM268.308 246.173C268.733 245.25 268.774 244.97 268.936 244.836C271.535 242.668 274.131 240.495 276.774 238.382C277.454 237.838 278.31 237.802 279.837 238.283C278.963 238.876 278.465 239.147 278.047 239.509C275.735 241.507 273.486 243.582 271.109 245.498C270.548 245.95 269.574 245.89 268.308 246.173ZM300.182 247.144C294.676 246.828 289.199 247.091 283.596 246.247C284.711 243.315 285.73 240.637 286.818 237.778C292.102 240.003 295.208 244.837 300.182 247.144ZM304.478 249.828C301.535 250.66 252.883 249.746 250.749 249.162C251.151 247.83 251.15 247.809 252.61 247.8C268.818 247.7 285.005 248.247 301.172 249.383C302.279 249.461 303.376 249.677 304.478 249.828ZM277.861 231.406C278.142 229.484 278.311 228.082 278.565 226.693C278.713 225.886 279.3 225.436 280.119 225.461C280.753 225.479 281.397 225.584 282.013 225.744C291.078 228.103 300.14 230.474 309.198 232.855C309.871 233.032 310.518 233.314 311.254 233.573C311.132 234.822 311.025 235.905 310.887 237.293C309.543 236.693 308.526 236.246 307.516 235.783C304.287 234.305 301.059 232.828 297.838 231.335C293.804 229.467 289.674 229.047 285.329 230.165C283.085 230.741 280.746 230.941 277.861 231.406ZM384.887 228.207C397.077 231.083 408.392 230.279 418.4 221.631C419.243 223.927 419.953 225.859 420.749 228.028C419.524 228.414 418.631 228.748 417.711 228.977C408.134 231.368 398.393 232.244 388.544 231.973C385.61 231.893 385.532 231.748 384.887 228.207ZM220.01 181.43L220.394 181.216C220.709 181.602 221.109 181.946 221.328 182.383C222.414 184.551 223.518 186.713 224.497 188.932C228.215 197.364 231.869 205.827 235.585 214.261C238.126 220.029 240.799 225.741 243.281 231.536C245.094 235.769 246.695 240.093 248.382 244.381C248.525 244.743 248.595 245.132 248.709 245.539C246.997 246.478 246.682 245.158 246.265 244.169C237.713 223.907 229.174 203.641 220.641 183.372C220.378 182.746 220.218 182.077 220.01 181.43ZM260.4 239.733C260.351 239.559 260.303 239.385 260.254 239.211C260.793 238.929 261.31 238.586 261.874 238.373C269.307 235.562 276.853 233.193 284.837 232.544C285.387 232.499 285.937 232.336 286.469 232.17C289.343 231.268 292.226 231.122 295.029 232.331C299.115 234.091 303.185 235.894 307.206 237.796C309.002 238.646 310.774 239.13 312.788 239.142C320.002 239.183 327.215 239.368 334.429 239.498C336.108 239.527 337.792 239.638 339.468 239.56C356.339 238.769 373.177 239.159 389.979 240.907C391.429 241.058 392.872 241.285 394.326 241.4C395.075 241.461 396.193 241.856 396.364 240.753C396.541 239.617 395.418 239.702 394.636 239.601C394.476 239.58 394.313 239.566 394.153 239.544C391.922 239.229 389.692 238.913 387.465 238.597C387.149 236.974 386.866 235.521 386.537 233.837C397.114 234.255 407.289 233.155 417.4 231.075C417.703 231.967 417.958 232.56 418.105 233.18C419.926 240.896 421.819 248.602 422.334 256.551C422.562 260.1 422.895 263.65 422.106 267.199C421.405 270.347 419.652 272.589 416.824 274.071C414.337 275.374 411.687 276.001 408.895 276.123C401.797 276.429 395.1 274.626 388.48 272.332C376.168 268.066 364.452 262.24 351.97 258.436C348.51 257.382 344.986 256.538 341.492 255.599C341.414 255.578 341.333 255.57 341.253 255.554C337.214 254.712 333.146 253.99 329.144 253.002C321.916 251.216 314.736 249.232 307.516 247.406C302.633 246.17 298.274 244.024 294.484 240.668C292.916 239.28 291.179 238.063 289.425 236.91C287.989 235.967 286.346 235.457 284.585 235.553C280.464 235.778 276.347 235.962 272.342 237.168C269.944 237.892 267.491 238.45 265.042 238.989C263.513 239.325 261.947 239.49 260.4 239.733ZM385.617 238.364C384.901 238.395 384.584 238.439 384.273 238.418C370.599 237.543 356.931 237.064 343.212 237.515C333.421 237.836 323.603 237.385 313.799 237.262C313.505 237.258 313.213 237.066 312.82 236.925C313.087 234.133 313.285 231.39 313.624 228.664C314.093 224.879 314.022 222.125 313.122 220.39C311.521 222.002 312.303 223.944 312.075 225.631C311.82 227.516 311.646 229.413 311.409 231.557C301.456 228.905 291.858 226.348 282.099 223.747C282.291 223.036 282.415 222.417 282.625 221.829C285.809 212.914 288.928 203.974 292.225 195.101C294.563 188.805 297.199 182.619 299.603 176.347C301.616 171.099 305.128 167.669 310.772 166.676C315.631 165.821 320.492 164.969 325.367 164.215C327.745 163.848 330.157 163.708 332.643 163.455C332.942 164.545 333.093 165.424 333.422 166.23C334.393 168.618 335.115 171.187 336.514 173.305C339.884 178.406 345.718 180.754 351.944 177.117C354.552 175.594 356.995 173.868 358.963 171.563C361.002 169.174 362.957 166.713 365.043 164.167C375.074 165.635 384.591 168.914 393.528 173.813C398.955 176.789 402.858 181.29 405.291 186.985C406.404 189.585 407.446 192.229 408.3 194.923C410.574 202.098 412.718 209.313 414.93 216.507C416.439 221.417 416.473 221.453 411.891 223.978C404.196 228.216 396.016 228.699 387.607 226.829C383.984 226.024 384.008 225.919 382.751 222.43C382.313 221.213 381.935 219.968 381.397 218.795C381.219 218.406 380.63 218.203 380.229 217.914C380.071 218.401 379.795 218.886 379.79 219.374C379.788 219.832 380.084 220.289 380.232 220.751C381.817 225.679 383.408 230.607 384.969 235.543C385.231 236.371 385.364 237.241 385.617 238.364ZM280.23 223.326C277.279 223.757 277.304 223.762 276.755 226.352C276.355 228.24 275.877 230.11 275.433 231.99C273.652 232.508 271.873 233.026 270.092 233.546C265.811 234.794 261.564 236.139 257.617 238.261C256.782 238.712 255.587 239.024 255.744 240.215C255.926 241.584 257.207 241.512 258.249 241.572C261.614 241.765 264.846 240.959 268.087 240.229C269.252 239.968 270.42 239.722 272.109 239.356C271.478 240.095 271.224 240.446 270.917 240.743C269.295 242.314 267.684 243.901 266.007 245.414C265.636 245.748 265.015 245.962 264.508 245.966C260.535 245.996 256.561 245.938 252.587 245.967C251.53 245.975 250.956 245.54 250.572 244.599C249.441 241.827 248.165 239.109 247.124 236.305C244.505 229.238 241.504 222.348 238.31 215.52C234.091 206.504 230.254 197.31 226.208 188.212C225.091 185.698 223.854 183.235 222.595 180.788C221.824 179.29 219.624 178.688 218.233 179.532C217.476 179.993 217.503 180.681 217.832 181.446C218.791 183.677 219.707 185.928 220.651 188.166C229.021 208.009 237.392 227.85 245.759 247.693C246.007 248.28 246.209 248.885 246.558 249.818C245.519 249.855 244.68 249.917 243.843 249.907C233.223 249.76 222.604 249.602 211.985 249.45C211.336 249.441 210.663 249.358 210.049 249.504C209.666 249.595 209.373 250.055 209.041 250.349C209.348 250.647 209.617 251.124 209.974 251.204C210.674 251.36 211.423 251.31 212.153 251.321C222.936 251.489 233.718 251.657 244.501 251.819C265.906 252.141 287.309 252.458 308.715 252.779C312.281 252.832 315.858 253.094 319.409 252.885C321.274 252.775 322.836 253.187 324.449 254.237C323.619 254.237 322.79 254.247 321.958 254.235C301.932 253.953 281.904 253.657 261.876 253.388C245.417 253.167 228.956 252.971 212.495 252.786C211.596 252.777 210.696 252.964 209.796 253.06C209.754 253.249 209.711 253.437 209.668 253.625C210.055 253.93 210.402 254.387 210.839 254.503C211.448 254.666 212.125 254.582 212.774 254.591C240.586 254.961 268.399 255.329 296.211 255.7C306.753 255.841 317.294 256.002 327.836 256.109C328.94 256.12 330.045 255.792 331.155 255.694C331.705 255.646 332.283 255.7 332.823 255.818C339.152 257.205 345.525 258.428 351.784 260.085C355.439 261.053 358.915 262.702 362.458 264.079C371.667 267.654 380.819 271.385 390.093 274.786C396.281 277.054 402.72 278.351 409.395 277.947C412.431 277.763 415.314 277.05 417.989 275.575C420.976 273.926 422.762 271.467 423.846 268.184C425.212 264.045 424.296 260.009 424.026 255.929C423.477 247.652 421.418 239.649 419.504 231.623C419.43 231.317 419.436 230.993 419.412 230.731C419.572 230.555 419.655 230.391 419.787 230.331C422.837 228.952 422.92 228.835 421.843 225.568C421.365 224.113 420.749 222.699 420.123 221.297C419.899 220.798 419.534 220.093 419.114 219.995C417.509 219.628 417.337 218.35 416.962 217.129C414.52 209.159 412.194 201.149 409.551 193.245C408.302 189.504 406.65 185.857 404.803 182.366C402.185 177.419 397.971 173.933 393.068 171.398C384.454 166.944 375.292 164.011 365.796 162.075C364.458 161.803 363.86 162.556 363.207 163.398C361.769 165.256 360.343 167.122 358.897 168.974C356.825 171.629 354.23 173.672 351.375 175.43C346.422 178.477 341.933 176.98 338.64 173.039C336.342 170.288 335.34 166.95 334.704 163.49C334.362 161.627 334.14 161.363 332.378 161.542C325.125 162.28 317.904 163.138 310.752 164.687C304.237 166.1 300.185 169.899 297.891 175.957C294.165 185.797 290.335 195.598 286.638 205.45C284.42 211.36 282.372 217.332 280.23 223.326Z" fill="#F2C94C"/>
<path fill-rule="evenodd" clip-rule="evenodd" d="M374.059 135.119C375.237 136.881 373.824 137.449 374.689 139.965C374.864 140.472 375.146 140.874 375.492 141.214C375.475 140.857 375.496 140.447 375.521 140.001C375.599 138.573 375.693 136.794 374.735 135.02C374.156 133.948 372.994 133.334 371.294 133.152C372.368 133.461 373.344 134.047 374.059 135.119ZM384.008 145.458C385.111 146.695 385.688 148.153 385.723 149.58C385.889 148.188 385.818 146.241 384.597 144.665C383.145 142.794 380.431 142.738 378.423 142.711C380.348 143.322 382.553 143.826 384.008 145.458ZM384.419 154.89C385.912 154.03 385.522 152.152 385.375 151.618C384.972 152.691 384.222 153.667 383.096 154.412C382.423 154.856 381.709 155.239 381.014 155.653C380.481 155.971 380.209 156.349 380.125 156.874C380.682 156.464 381.502 156.139 382.359 155.805C383.075 155.527 383.815 155.239 384.419 154.89ZM332.42 116.149C333.169 112.962 335.383 110.807 338.655 111.139C340.426 111.319 342.699 110.929 344.436 110.782C349.543 110.35 353.294 112.921 356.758 116.595C358.182 118.104 359.066 119.838 359.423 121.924C359.737 123.754 359.943 125.376 359.886 127.036C360.346 126.957 360.576 126.944 360.787 126.874C363.733 125.9 365.977 127.557 365.863 130.656C365.824 131.747 365.546 132.713 365.058 133.538C365.139 133.523 365.255 133.497 365.414 133.461C366.107 133.303 366.758 133.179 367.38 133.081C368.054 132.934 368.744 132.84 369.473 132.867C372.291 132.729 374.145 133.396 374.957 134.9C375.951 136.737 375.848 138.631 375.773 140.015C375.742 140.594 375.718 141.089 375.769 141.472C376.285 141.886 376.929 142.184 377.632 142.442C377.863 142.448 378.105 142.452 378.359 142.456C380.425 142.484 383.253 142.522 384.797 144.51C386.904 147.227 385.732 150.988 385.583 151.428C385.692 151.774 386.333 154.08 384.545 155.11C383.926 155.468 383.175 155.76 382.45 156.041C381.507 156.408 380.608 156.764 380.103 157.217C380.1 157.357 380.094 157.492 380.115 157.654C380.453 160.4 378.934 162.308 376.191 162.765C375.321 162.91 374.418 162.911 373.532 162.898C371.27 162.863 369.009 162.728 366.747 162.741C366 162.745 365.358 162.601 364.812 162.324C364.794 162.763 364.76 163.212 364.76 163.67C363.165 163.615 363.226 162.626 363.046 161.789C361.357 153.954 360.063 146.058 359.352 138.07C359.129 135.573 359.157 135.498 361.56 134.254C363.408 133.298 364.481 131.243 363.822 129.673C363.598 129.138 363.048 128.477 362.556 128.391C362.12 128.316 361.511 128.904 361.069 129.3C360.817 129.526 359.753 130.641 359.161 131.101C358.938 131.699 358.691 132.187 358.357 133.248C357.667 132.187 352.106 121.937 346.435 118.414C344.528 117.228 343.167 115.975 341.295 114.633C339.989 115.817 339.972 116.587 337.679 119.502C336.7 120.664 335.394 121.634 334.164 122.806C334.194 123.441 334.236 124.076 334.294 124.707C334.905 131.324 335.773 137.903 338.762 143.977C340.139 146.774 341.582 147.397 344.647 146.453C346.903 145.757 349.053 144.838 350.875 143.272C351.396 142.824 352.05 142.069 352.705 142.936C353.304 143.727 352.539 144.301 351.972 144.719C350.999 145.435 350.003 146.152 348.93 146.695C346.24 148.057 343.438 149.046 340.369 148.48C340.089 149.298 339.854 149.898 339.676 150.516C338.603 154.247 337.567 157.99 336.465 161.712C336.191 162.636 336.255 163.853 334.332 164.334C334.479 163.226 334.493 162.446 334.694 161.716C335.808 157.661 336.991 153.626 338.093 149.568C338.334 148.682 338.849 147.82 338.204 146.797C335.654 142.759 334.439 138.237 333.57 133.598C333.026 130.687 332.6 127.765 332.38 124.828C332.378 124.832 332.376 124.834 332.375 124.838C331.945 121.878 331.855 118.563 332.42 116.149Z" fill="#F2C94C"/>
<path fill-rule="evenodd" clip-rule="evenodd" d="M341.802 124.462L340.252 130.587L342.513 130.813L341.802 124.462Z" fill="#F2C94C"/>
<path fill-rule="evenodd" clip-rule="evenodd" d="M341.798 124.521L342.5 130.8L340.265 130.577L341.798 124.521ZM342.513 130.823C342.515 130.823 342.518 130.822 342.52 130.82C342.522 130.817 342.523 130.814 342.523 130.811L341.813 124.46C341.812 124.455 341.808 124.451 341.803 124.451C341.798 124.451 341.793 124.454 341.792 124.458L340.242 130.583C340.241 130.586 340.242 130.59 340.243 130.592C340.245 130.595 340.248 130.596 340.251 130.597L342.511 130.823H342.513Z" fill="#F2C94C"/>
<path fill-rule="evenodd" clip-rule="evenodd" d="M343.587 119.965C343.587 119.965 343.494 121.841 343.909 122.234C345.654 122.041 349.58 122.689 351.55 123.557C350.775 121.761 343.587 119.965 343.587 119.965Z" fill="#F2C94C"/>
<path fill-rule="evenodd" clip-rule="evenodd" d="M343.599 119.977C343.764 120.019 345.487 120.46 347.276 121.095C349.723 121.967 351.191 122.809 351.53 123.534C349.609 122.697 345.711 122.024 343.915 122.222C343.529 121.846 343.592 120.144 343.599 119.977ZM351.551 123.566C351.554 123.566 351.556 123.564 351.558 123.562C351.563 123.559 351.563 123.555 351.562 123.55C351.239 122.803 349.799 121.971 347.283 121.076C345.41 120.41 343.609 119.957 343.592 119.953C343.588 119.952 343.585 119.953 343.583 119.955C343.579 119.956 343.577 119.959 343.577 119.962C343.574 120.039 343.488 121.848 343.904 122.24C343.906 122.242 343.91 122.244 343.913 122.243C345.712 122.044 349.636 122.723 351.546 123.565C351.548 123.565 351.549 123.566 351.551 123.566Z" fill="#F2C94C"/>
<path fill-rule="evenodd" clip-rule="evenodd" d="M346.593 128.358C347.155 128.393 347.715 128.288 348.237 128.116C348.044 128.173 347.838 128.204 347.624 128.204C346.557 128.204 345.688 127.442 345.688 126.507C345.688 126.13 345.981 125.679 346.257 125.367C344.888 125.493 343.687 126.205 343.244 126.498C343.64 126.968 344.875 128.253 346.593 128.358ZM349.51 126.041C349.541 126.202 349.56 126.378 349.56 126.507C349.56 127.186 349.103 127.773 348.445 128.043C349.452 127.67 350.285 127.07 350.641 126.791C350.435 126.614 350.048 126.319 349.51 126.041ZM342.802 126.28C342.874 126.226 344.592 124.944 346.609 124.917C349.382 124.886 351.054 126.578 351.125 126.65C351.166 126.691 351.187 126.749 351.185 126.808C351.183 126.866 351.157 126.921 351.113 126.96C351.025 127.038 349.01 128.795 346.814 128.795C346.732 128.795 346.649 128.792 346.567 128.787C344.264 128.644 342.818 126.661 342.757 126.577C342.689 126.482 342.709 126.351 342.802 126.28Z" fill="#F2C94C"/>
<path fill-rule="evenodd" clip-rule="evenodd" d="M337.14 127.926C337.633 127.96 338.127 127.84 338.579 127.651C338.501 127.666 338.422 127.677 338.343 127.677C337.482 127.677 336.783 126.977 336.783 126.118C336.783 125.742 336.915 125.39 337.153 125.111C337.057 125.105 336.96 125.102 336.862 125.102H336.861C335.776 125.102 334.783 125.867 334.435 126.168C334.744 126.596 335.747 127.825 337.14 127.926ZM340.389 126.466C340.276 126.37 340.107 126.235 339.889 126.087C339.846 126.448 339.691 126.81 339.445 127.105C339.38 127.186 339.309 127.256 339.234 127.32C339.757 127.012 340.173 126.661 340.389 126.466ZM334 125.981C334.054 125.928 335.339 124.672 336.861 124.672H336.862C339.218 124.672 340.792 126.245 340.858 126.312C340.94 126.395 340.94 126.529 340.859 126.613C340.84 126.632 340.394 127.087 339.713 127.53C338.866 128.082 338.061 128.361 337.318 128.361C337.248 128.361 337.179 128.359 337.11 128.354C335.205 128.218 334.018 126.327 333.968 126.247C333.916 126.162 333.929 126.051 334 125.981Z" fill="#F2C94C"/>
<path fill-rule="evenodd" clip-rule="evenodd" d="M340.599 119.964C340.599 119.964 340.693 121.839 340.276 122.232C338.533 122.04 335.725 122.502 333.755 123.369C334.53 121.574 340.599 119.964 340.599 119.964Z" fill="#F2C94C"/>
<path fill-rule="evenodd" clip-rule="evenodd" d="M339.406 122.178C337.667 122.178 335.41 122.634 333.776 123.348C334.111 122.623 335.387 121.813 337.472 121.003C338.988 120.414 340.437 120.018 340.589 119.977C340.595 120.146 340.658 121.846 340.272 122.222C340.004 122.192 339.713 122.178 339.406 122.178ZM333.756 123.381C333.757 123.381 333.759 123.381 333.76 123.38C335.682 122.534 338.482 122.044 340.275 122.243C340.278 122.244 340.281 122.242 340.283 122.241C340.458 122.075 340.566 121.642 340.604 120.951C340.633 120.438 340.609 119.967 340.609 119.962C340.609 119.96 340.607 119.957 340.605 119.955C340.602 119.953 340.599 119.952 340.595 119.953C340.581 119.957 339.06 120.362 337.464 120.982C335.989 121.556 334.148 122.434 333.746 123.366C333.744 123.37 333.745 123.375 333.748 123.378C333.75 123.38 333.753 123.381 333.756 123.381Z" fill="#F2C94C"/>
<path fill-rule="evenodd" clip-rule="evenodd" d="M345.504 133.089C344.432 134.102 343.561 134.665 342.108 134.762C340.656 134.859 339.639 134.328 339.639 134.328C339.639 134.328 340.801 136.299 342.206 136.664C345.11 137.423 344.973 135.147 345.504 133.089Z" fill="#F2C94C"/>
<path fill-rule="evenodd" clip-rule="evenodd" d="M345.484 133.122C345.401 133.447 345.335 133.777 345.271 134.096C345.061 135.142 344.862 136.131 344.165 136.564C343.709 136.85 343.069 136.879 342.209 136.654C340.921 136.318 339.824 134.607 339.668 134.354C339.855 134.443 340.815 134.858 342.109 134.773C343.57 134.675 344.428 134.117 345.484 133.122ZM343.222 136.825C343.602 136.825 343.919 136.744 344.176 136.583C344.881 136.143 345.081 135.151 345.293 134.1C345.359 133.77 345.428 133.427 345.514 133.092C345.516 133.087 345.513 133.083 345.509 133.08C345.506 133.078 345.5 133.078 345.497 133.082C344.43 134.089 343.575 134.653 342.107 134.751C340.675 134.847 339.654 134.324 339.644 134.319C339.639 134.316 339.634 134.317 339.632 134.321C339.628 134.324 339.628 134.329 339.63 134.333C339.641 134.354 340.81 136.311 342.203 136.676C342.584 136.774 342.923 136.825 343.222 136.825Z" fill="#F2C94C"/>
<path fill-rule="evenodd" clip-rule="evenodd" d="M173.869 107.569C174.561 107.481 175.246 107.342 175.935 107.316C177.431 107.258 178.933 107.305 180.427 107.225C186.407 106.904 192.382 106.515 198.362 106.221C203.94 105.947 209.448 105.146 214.874 103.907C222.797 102.099 230.687 100.153 238.424 97.6164C246.097 95.1011 253.094 91.3457 259.682 86.7446C260.646 86.072 261.028 85.248 261.018 84.1645C261.01 83.2785 260.991 82.3879 260.901 81.5066C260.702 79.557 260.471 77.6103 260.225 75.666C259.578 70.563 258.431 65.5622 257.012 60.6246C254.356 51.3775 250.528 42.6388 245.633 34.3479C244.286 32.0663 242.406 30.8303 239.863 30.3756C234.642 29.4412 229.352 29.3062 224.077 29.0239C222.399 28.9339 220.703 28.9567 219.028 29.09C214.086 29.4809 209.154 30.0116 204.211 30.378C198.604 30.7935 193.07 31.7198 187.517 32.521C183.952 33.0347 180.377 33.4812 176.824 34.0598C171.52 34.9235 166.204 35.7522 160.942 36.8304C156.274 37.7871 151.658 39.0085 147.046 40.2147C143.794 41.0656 140.569 42.0305 137.369 43.059C136.092 43.4693 134.884 44.1343 133.701 44.786C132.357 45.5264 131.88 46.7408 132.184 48.2357C132.435 49.47 132.659 50.7171 133.015 51.9227C134.124 55.6816 135.322 59.4148 136.428 63.1743C138.549 70.3812 140.399 77.6688 142.939 84.7506C144.323 88.613 145.338 92.608 147.185 96.3055C148.377 98.6911 149.563 101.067 151.34 103.099C152.132 104.004 153.021 104.741 154.202 105.009C156.615 105.556 159.032 106.09 161.539 105.965C162.236 105.93 162.939 106.046 163.64 106.056C164.687 106.071 165.381 106.583 165.879 107.475C167.321 110.051 168.638 112.673 169.114 115.632C169.169 115.98 169.298 116.315 169.475 116.949C171.49 113.948 173.019 111.052 173.869 107.569ZM175.777 109.247C175.007 110.879 174.28 112.34 173.623 113.832C172.612 116.129 171.076 118.065 169.541 120.013C168.925 120.793 168.236 120.98 167.173 120.581C167.173 119.737 167.189 118.863 167.171 117.99C167.105 114.783 166.227 111.836 164.398 109.17C163.893 108.435 163.298 108.174 162.424 108.105C159.865 107.903 157.302 107.671 154.762 107.302C151.805 106.873 149.54 105.248 148.05 102.698C146.853 100.647 145.708 98.5385 144.805 96.3464C141.48 88.2629 138.759 79.9766 136.595 71.5015C135.359 66.6644 133.828 61.9032 132.55 57.0766C131.739 54.0132 131.1 50.9012 130.477 47.7927C130.172 46.2721 130.987 45.0741 132.073 44.1174C133.716 42.6722 135.741 41.8873 137.75 41.1246C141.122 39.8442 144.636 39.0547 148.142 38.2318C152.282 37.2605 156.376 36.083 160.535 35.2099C165.427 34.1831 170.361 33.3514 175.289 32.5C179.756 31.7286 184.242 31.0647 188.713 30.3178C194.436 29.3605 200.174 28.5447 205.971 28.1777C210.639 27.8832 215.299 27.4519 219.97 27.2444C225.586 26.9943 231.199 27.1474 236.76 28.076C238.875 28.429 240.974 28.8924 243.069 29.3553C243.541 29.4599 243.989 29.734 244.408 29.9958C247.679 32.04 249.853 35.034 251.721 38.3236C253.651 41.7202 254.953 45.3289 255.923 49.1041C256.827 52.6275 257.981 56.0866 259.008 59.5796C260.314 64.0235 261.075 68.5842 261.78 73.149C262.393 77.1148 262.826 81.1086 263.395 85.082C263.508 85.8791 263.141 86.3151 262.623 86.7405C258.206 90.3738 253.591 93.6886 248.306 96.0011C239.372 99.9113 230.207 103.117 220.6 104.89C214.809 105.959 208.994 106.952 203.15 107.651C196.466 108.45 189.743 108.945 183.028 109.442C180.946 109.597 178.832 109.323 176.734 109.249C176.41 109.237 176.086 109.247 175.777 109.247Z" fill="#F2C94C"/>
<path fill-rule="evenodd" clip-rule="evenodd" d="M178.572 43.7222C177.907 47.1604 179.012 51.6094 180.855 53.1438C182.047 49.5902 180.515 46.7725 178.572 43.7222ZM181.748 54.3065C184.503 55.889 187.272 56.4318 190.238 55.4547C191.543 55.025 192.479 54.1093 193.121 52.917C193.452 52.3035 193.727 51.6598 194.077 51.0573C194.612 50.1359 195.178 49.9613 195.861 50.7065C197.181 52.1469 198.746 52.369 200.498 51.8628C201.939 51.4464 203.358 50.9524 204.769 50.4438C205.249 50.2704 205.673 49.9544 206.251 50.3893C205.94 51.3896 205.016 51.7549 204.256 52.0919C203.242 52.5419 202.09 52.6961 200.997 52.9768C198.9 53.5149 196.881 53.6268 195.17 51.7984C194.958 52.1017 194.766 52.2995 194.663 52.5337C192.717 56.9572 188.613 57.8201 184.658 56.9247C183.433 56.6475 182.275 56.0873 180.933 55.6014C180.839 55.6826 180.59 55.8762 180.364 56.0925C177.13 59.1793 173.41 60.3293 169.119 58.5635C167.167 57.7597 165.505 57.9088 163.817 59.1121C163.064 59.6485 162.19 60.0579 161.316 60.3838C159.954 60.8923 158.712 60.5618 157.68 59.5557C157.178 59.0662 156.733 58.5217 156.238 58.0253C155.47 57.2529 155.096 57.1775 154.36 57.9969C153.495 58.9607 152.794 60.0677 152.041 61.126C151.767 61.5105 151.748 62.3218 151.065 62.051C150.314 61.7535 150.722 61.0414 150.998 60.6302C151.824 59.4008 152.64 58.1355 153.66 57.0697C154.852 55.8241 155.963 55.9296 157.206 57.1288C157.711 57.6154 158.194 58.1245 158.697 58.6128C159.32 59.2164 160.059 59.4588 160.896 59.1393C161.638 58.8563 162.437 58.6186 163.067 58.1674C165.216 56.6249 167.381 56.488 169.852 57.4791C173.279 58.854 177.151 57.8537 179.539 55.236C179.69 55.0702 179.803 54.8719 179.949 54.6648C179.463 53.9365 178.916 53.2859 178.555 52.5471C177.057 49.4789 176.824 46.2286 177.321 42.9127C177.379 42.5271 177.743 42.0568 178.094 41.8915C178.314 41.7883 178.917 42.0922 179.107 42.3717C180.661 44.6483 182.091 46.9784 182.456 49.7908C182.654 51.3142 182.328 52.7274 181.748 54.3065Z" fill="#F2C94C"/>
<path fill-rule="evenodd" clip-rule="evenodd" d="M217.111 68.3246C217.111 67.4291 217.219 66.6306 217.085 65.8773C216.915 64.9266 216.653 63.9606 216.238 63.0974C215.815 62.2202 215.164 62.3042 214.741 63.1767C213.775 65.1751 214.841 67.7517 217.111 68.3246ZM232.517 63.041C232.057 64.7239 231.391 66.2005 230.131 67.3292C228.53 68.7623 226.658 69.6425 224.592 70.1179C222.302 70.6449 220.001 70.6062 217.774 70.1708C216.855 71.048 216.058 71.9782 215.103 72.6927C211.366 75.4896 207.379 76.1629 203.129 73.8943C202.713 73.6722 201.972 73.537 202.279 72.8678C202.575 72.2232 203.173 72.6698 203.625 72.8319C204.538 73.1598 205.413 73.661 206.351 73.8426C210.468 74.6382 213.605 72.8384 216.454 69.773C215.94 69.4163 215.535 69.1431 215.138 68.8587C212.882 67.2475 212.848 64.5875 213.539 62.823C213.845 62.0433 214.293 61.3799 215.204 61.3282C216.183 61.273 216.877 61.7736 217.322 62.6432C218.089 64.141 218.329 65.7515 218.307 67.4144C218.301 67.8334 218.251 68.2517 218.219 68.7077C218.385 68.8152 218.525 68.9739 218.684 68.9974C222.039 69.4786 225.243 69.0849 228.173 67.2328C229.73 66.2486 230.794 64.8854 231.237 63.0498C231.401 62.3653 231.336 61.7977 230.851 61.2301C230.434 60.7418 230.058 60.1636 229.859 59.5602C229.741 59.2 229.868 58.5895 230.12 58.3098C230.529 57.8585 231.141 58.0736 231.466 58.4913C231.852 58.9884 232.219 59.5878 232.336 60.1942C232.492 61.0021 232.869 61.5538 233.489 62.0227C235.021 63.1826 236.625 64.1821 238.513 64.6469C239.445 64.8766 240.345 64.8807 241.238 64.5164C241.367 64.4636 241.49 64.3936 241.622 64.3543C242.034 64.232 242.532 64.1034 242.649 64.6551C242.697 64.8796 242.353 65.3238 242.085 65.4601C240.737 66.147 239.313 66.1088 237.885 65.7386C236.247 65.3126 234.79 64.5064 233.405 63.5481C233.146 63.3689 232.858 63.2343 232.517 63.041Z" fill="#F2C94C"/>
<path fill-rule="evenodd" clip-rule="evenodd" d="M175.406 78.2927C174.878 78.0626 174.749 77.6473 175.105 77.2409C176.459 75.6948 177.952 74.2858 180.229 74.2465C181.079 74.231 181.948 74.4649 182.785 74.6718C184.117 75.0002 185.415 75.4642 186.754 75.7589C189.374 76.3357 191.968 75.8424 194.543 75.4006C195.666 75.2081 196.753 74.8271 197.855 74.5313C198.032 74.4837 198.224 74.3643 198.381 74.3975C198.656 74.4561 198.91 74.6065 199.173 74.7188C199.058 74.9383 198.997 75.2203 198.815 75.3613C198.574 75.5488 198.25 75.6533 197.945 75.7462C194.462 76.8062 190.917 77.5439 187.25 77.0534C185.765 76.8544 184.285 76.4308 182.883 75.9099C180.428 74.998 178.4 75.4293 176.673 77.3144C176.372 77.6435 176.022 77.9327 175.684 78.2285C175.626 78.2788 175.513 78.27 175.406 78.2927Z" fill="#F2C94C"/>
</svg>
